<?xml version="1.0" encoding="UTF-8" standalone="no"?>
<!-- Created with Inkscape (http://www.inkscape.org/) -->

<svg
   width="500.00006"
   height="500.00006"
   viewBox="0 0 132.29169 132.29169"
   version="1.1"
   id="svg1"
   xml:space="preserve"
   inkscape:version="1.3.2 (091e20e, 2023-11-25)"
   sodipodi:docname="drawing.svg"
   inkscape:export-filename="applogo.png"
   inkscape:export-xdpi="96"
   inkscape:export-ydpi="96"
   xmlns:inkscape="http://www.inkscape.org/namespaces/inkscape"
   xmlns:sodipodi="http://sodipodi.sourceforge.net/DTD/sodipodi-0.dtd"
   xmlns="http://www.w3.org/2000/svg"
   xmlns:svg="http://www.w3.org/2000/svg"><sodipodi:namedview
     id="namedview1"
     pagecolor="#ffffff"
     bordercolor="#000000"
     borderopacity="0.25"
     inkscape:showpageshadow="2"
     inkscape:pageopacity="0.0"
     inkscape:pagecheckerboard="0"
     inkscape:deskcolor="#d1d1d1"
     inkscape:document-units="mm"
     inkscape:zoom="0.63517817"
     inkscape:cx="170.81821"
     inkscape:cy="120.43865"
     inkscape:window-width="1744"
     inkscape:window-height="926"
     inkscape:window-x="169"
     inkscape:window-y="179"
     inkscape:window-maximized="0"
     inkscape:current-layer="layer1" /><defs
     id="defs1" /><g
     inkscape:label="Layer 1"
     inkscape:groupmode="layer"
     id="layer1"><path
       style="fill:#ffffff;fill-opacity:1;stroke-width:1.4431"
       d="M 14.648875,122.63437 C 4.6998965,120.05438 -0.28044309,109.73062 4.0578884,100.68029 8.5006778,91.412045 18.179537,86.863221 39.246356,84.14252 63.91624,80.956507 75.382677,73.571329 94.800422,48.361901 c 2.530515,-3.285284 6.443548,-8.251479 8.695618,-11.035962 4.93801,-6.105412 4.94057,-5.413224 -0.0349,-9.394006 -2.23863,-1.791117 -3.88624,-3.418166 -3.66131,-3.615671 0.67379,-0.591674 29.70514,-10.329108 29.97898,-10.055278 0.13911,0.139116 -0.22459,3.431891 -0.80806,7.317424 -0.58349,3.885533 -1.62993,10.94649 -2.32544,15.691005 -1.35766,9.261441 -1.42946,9.512772 -2.38696,8.353725 -0.92634,-1.121313 -7.79214,-7.052717 -8.16377,-7.052717 -0.17465,0 -5.58948,6.614341 -12.03297,14.698534 -23.541829,29.536234 -35.933028,37.449441 -64.69002,41.311978 -18.957447,2.546292 -26.459809,6.125897 -26.469713,12.629507 -0.0046,3.06656 2.068231,5.17909 5.081927,5.17909 3.673119,0 4.47632,-0.70433 7.622831,-6.68462 2.281299,-4.33583 1.984733,-4.16849 9.017582,-5.0886 6.066915,-0.793748 5.9749,-1.205088 1.614723,7.21833 -6.494632,12.54696 -13.022286,17.02157 -21.590119,14.79973 z m 90.565355,-0.0422 c -2.60609,-0.62072 -5.998228,-2.86672 -8.382911,-5.55052 -2.166628,-2.4384 -16.222777,-29.121817 -16.222777,-30.79645 0,-0.745147 6.688129,-6.437917 7.563542,-6.437917 0.269784,0 3.50173,5.966165 7.182112,13.258149 9.840214,19.496568 9.707174,19.313338 14.018374,19.305258 4.85828,-0.009 6.67099,-4.37125 3.88028,-9.3375 -1.44454,-2.57063 -3.72404,-6.907484 -12.09663,-23.014448 -5.076704,-9.766439 -4.970265,-8.439803 -1.0747,-13.393684 3.90551,-4.966538 3.1767,-5.117978 6.491,1.348716 1.54002,3.004817 5.75852,11.07755 9.37444,17.939422 3.61593,6.861878 7.10417,13.736159 7.75167,15.276184 4.97941,11.84352 -5.87105,24.4071 -18.4844,21.40279 z M 12.103485,84.516489 c 0.364086,-0.976901 11.658074,-22.58988 17.092543,-32.709492 1.879605,-3.500049 5.259453,-9.914677 7.510774,-14.254734 9.509829,-18.332879 10.964572,-20.697864 14.527504,-23.617422 10.39661,-8.5192327 23.473168,-5.5076764 30.729505,7.077044 2.838023,4.922005 10.863078,20.401146 10.863078,20.953269 0,0.492836 -5.972366,7.979969 -6.531045,8.187519 -0.188794,0.07013 -0.91268,-0.960781 -1.60864,-2.29094 C 73.233495,25.970774 71.393731,22.924022 68.481706,21.024368 c -5.915884,-3.85918 -11.10767,-1.020944 -16.264483,8.891423 -1.383856,2.660048 -4.415374,8.501934 -6.736695,12.982002 -2.321322,4.480052 -5.056196,9.63467 -6.077498,11.454693 -1.021302,1.820021 -3.042861,5.600062 -4.492355,8.400087 -10.18453,19.673815 -9.105739,18.139918 -13.611993,19.354453 -2.240027,0.603726 -5.190095,1.593296 -6.555707,2.199042 -2.996513,1.329149 -3.058267,1.334084 -2.63949,0.210421 z m 27.277094,-5.844916 c 0.0049,-0.07533 2.061653,-4.146115 4.57053,-9.046184 2.508876,-4.900055 6.914915,-13.577118 9.791193,-19.282385 9.216319,-18.281085 10.681277,-18.354381 19.476473,-0.97462 5.335571,10.543368 5.335571,10.543368 2.470245,13.236516 -1.575935,1.481237 -3.151032,2.97135 -3.500236,3.311347 -1.284296,1.250498 -1.712136,0.789469 -4.825618,-5.200047 -1.746625,-3.360038 -3.318274,-6.266363 -3.492542,-6.458484 -0.174257,-0.192121 -2.584495,4.098665 -5.356091,9.535067 -7.157563,14.039519 -5.901724,12.589294 -11.815678,13.644568 -2.769951,0.494266 -5.551735,1.004983 -6.181744,1.134921 -0.630007,0.130023 -1.141446,0.17463 -1.136532,0.09928 z"
       id="path1" /></g></svg>
